<svg viewBox="0 0 128 128" xmlns="http://www.w3.org/2000/svg" role="img" aria-labelledby="faviconTitle">
  <title id="faviconTitle">QRLab favicon</title>
  <defs>
    <linearGradient id="favicon-grad" x1="0" y1="0" x2="1" y2="1">
      <stop offset="0%" stop-color="#fb7185" />
      <stop offset="100%" stop-color="#f97316" />
    </linearGradient>
    <linearGradient id="favicon-inner" x1="0" y1="0" x2="1" y2="1">
      <stop offset="0%" stop-color="#ffffff" />
      <stop offset="100%" stop-color="#f8fafc" />
    </linearGradient>
  </defs>

  <rect x="0" y="0" width="128" height="128" rx="32" fill="transparent" />
  <rect x="8" y="8" width="112" height="112" rx="28" fill="url(#favicon-grad)" />
  <rect x="18" y="18" width="92" height="92" rx="20" fill="url(#favicon-inner)" />
  <rect x="8" y="8" width="112" height="112" rx="28" fill="none" stroke="#111827" stroke-width="8" />

  <g transform="translate(30 30)">
    <rect x="0" y="0" width="28" height="28" rx="7" fill="#111827" />
    <rect x="7" y="7" width="14" height="14" rx="4" fill="#ffffff" />

    <rect x="0" y="56" width="28" height="28" rx="7" fill="#111827" />
    <rect x="0" y="62" width="14" height="14" rx="4" fill="#ffffff" />

    <rect x="56" y="0" width="28" height="28" rx="7" fill="#111827" />
    <rect x="62" y="7" width="14" height="14" rx="4" fill="#ffffff" />

    <rect x="40" y="40" width="20" height="20" rx="4" fill="#f97316" />
    <rect x="64" y="64" width="12" height="12" rx="3" fill="#111827" />
    <rect x="64" y="44" width="12" height="12" rx="3" fill="#111827" />
    <rect x="44" y="64" width="12" height="12" rx="3" fill="#111827" />

    <path d="M44 16h24v24" stroke="#111827" stroke-width="8" stroke-linecap="round" stroke-linejoin="round" />
  </g>
</svg>
