<svg viewBox="0 0 128 128" xmlns="http://www.w3.org/2000/svg" role="img" aria-labelledby="qlabLogoTitle">
  <title id="qlabLogoTitle">QRLab logo</title>
  <defs>
    <linearGradient id="qrlab-grad" x1="0" y1="0" x2="1" y2="1">
      <stop offset="0%" stop-color="#fb7185" />
      <stop offset="100%" stop-color="#f97316" />
    </linearGradient>
    <linearGradient id="qrlab-inner" x1="0" y1="0" x2="1" y2="1">
      <stop offset="0%" stop-color="#ffffff" />
      <stop offset="100%" stop-color="#f8fafc" />
    </linearGradient>
    <filter id="qrlab-shadow" x="-30%" y="-30%" width="160%" height="160%">
      <feDropShadow dx="0" dy="6" stdDeviation="8" flood-color="#000" flood-opacity="0.14" />
    </filter>
  </defs>

  <rect x="6" y="6" width="116" height="116" rx="28" fill="url(#qrlab-grad)" />
  <rect x="22" y="22" width="84" height="84" rx="20" fill="url(#qrlab-inner)" filter="url(#qrlab-shadow)" />

  <g transform="translate(30 30)">
    <rect x="0" y="0" width="28" height="28" rx="7" fill="#111827" />
    <rect x="7" y="7" width="14" height="14" rx="4" fill="#ffffff" />

    <rect x="0" y="56" width="28" height="28" rx="7" fill="#111827" />
    <rect x="0" y="62" width="14" height="14" rx="4" fill="#ffffff" />

    <rect x="56" y="0" width="28" height="28" rx="7" fill="#111827" />
    <rect x="62" y="7" width="14" height="14" rx="4" fill="#ffffff" />

    <rect x="40" y="40" width="20" height="20" rx="4" fill="#f97316" />
    <rect x="64" y="64" width="12" height="12" rx="3" fill="#111827" />
    <rect x="64" y="44" width="12" height="12" rx="3" fill="#111827" />
    <rect x="44" y="64" width="12" height="12" rx="3" fill="#111827" />

    <path d="M44 16h24v24" stroke="#111827" stroke-width="8" stroke-linecap="round" stroke-linejoin="round" />
  </g>
</svg>
